<svg width="27" height="22" viewBox="0 0 27 22" fill="none" xmlns="http://www.w3.org/2000/svg">
<path d="M1 10.5L5.6 15L14 1" stroke="white" stroke-width="2" stroke-linecap="round" stroke-linejoin="round"/>
<mask id="path-2-inside-1_234_241" fill="white">
<path fill-rule="evenodd" clip-rule="evenodd" d="M7.70407 21.5227C8.05328 21.8202 8.50578 22 8.99957 22H13.9996H18.9996C20.1026 22 20.9996 21.103 20.9996 20V16H24.9996C26.1026 16 26.9996 15.103 26.9996 14V9V4C26.9996 2.897 26.1026 2 24.9996 2H20.1859L18.9072 4H24.9996V14H20.9996V10C20.9996 8.897 20.1026 8 18.9996 8H16.3498L15.0711 10H18.9996L19.0016 20H8.99957V19.4964L7.70407 21.5227Z"/>
</mask>
<path fill-rule="evenodd" clip-rule="evenodd" d="M7.70407 21.5227C8.05328 21.8202 8.50578 22 8.99957 22H13.9996H18.9996C20.1026 22 20.9996 21.103 20.9996 20V16H24.9996C26.1026 16 26.9996 15.103 26.9996 14V9V4C26.9996 2.897 26.1026 2 24.9996 2H20.1859L18.9072 4H24.9996V14H20.9996V10C20.9996 8.897 20.1026 8 18.9996 8H16.3498L15.0711 10H18.9996L19.0016 20H8.99957V19.4964L7.70407 21.5227Z" fill="white"/>
<path d="M7.70407 21.5227L6.86155 20.984L6.39196 21.7185L7.05552 22.2839L7.70407 21.5227ZM20.9996 16V15H19.9996V16H20.9996ZM20.1859 2V1H19.6384L19.3434 1.46133L20.1859 2ZM18.9072 4L18.0647 3.46133L17.081 5H18.9072V4ZM24.9996 4H25.9996V3H24.9996V4ZM24.9996 14V15H25.9996V14H24.9996ZM20.9996 14H19.9996V15H20.9996V14ZM16.3498 8V7H15.8023L15.5073 7.46133L16.3498 8ZM15.0711 10L14.2286 9.46133L13.2449 11H15.0711V10ZM18.9996 10L19.9996 9.9998L19.9994 9H18.9996V10ZM19.0016 20V21H20.0018L20.0016 19.9998L19.0016 20ZM8.99957 20H7.99957V21H8.99957V20ZM8.99957 19.4964H9.99957V16.0759L8.15705 18.9577L8.99957 19.4964ZM7.05552 22.2839C7.57832 22.7293 8.25862 23 8.99957 23V21C8.75295 21 8.52824 20.9112 8.35261 20.7615L7.05552 22.2839ZM8.99957 23H13.9996V21H8.99957V23ZM13.9996 23H18.9996V21H13.9996V23ZM18.9996 23C20.6549 23 21.9996 21.6553 21.9996 20H19.9996C19.9996 20.5507 19.5503 21 18.9996 21V23ZM21.9996 20V16H19.9996V20H21.9996ZM20.9996 17H24.9996V15H20.9996V17ZM24.9996 17C26.6549 17 27.9996 15.6553 27.9996 14H25.9996C25.9996 14.5507 25.5503 15 24.9996 15V17ZM27.9996 14V9H25.9996V14H27.9996ZM27.9996 9V4H25.9996V9H27.9996ZM27.9996 4C27.9996 2.34472 26.6549 1 24.9996 1V3C25.5503 3 25.9996 3.44928 25.9996 4H27.9996ZM24.9996 1H20.1859V3H24.9996V1ZM19.3434 1.46133L18.0647 3.46133L19.7498 4.53867L21.0285 2.53867L19.3434 1.46133ZM18.9072 5H24.9996V3H18.9072V5ZM23.9996 4V14H25.9996V4H23.9996ZM24.9996 13H20.9996V15H24.9996V13ZM21.9996 14V10H19.9996V14H21.9996ZM21.9996 10C21.9996 8.34471 20.6549 7 18.9996 7V9C19.5503 9 19.9996 9.44928 19.9996 10H21.9996ZM18.9996 7H16.3498V9H18.9996V7ZM15.5073 7.46133L14.2286 9.46133L15.9136 10.5387L17.1923 8.53867L15.5073 7.46133ZM15.0711 11H18.9996V9H15.0711V11ZM17.9996 10.0002L18.0016 20.0002L20.0016 19.9998L19.9996 9.9998L17.9996 10.0002ZM19.0016 19H8.99957V21H19.0016V19ZM9.99957 20V19.4964H7.99957V20H9.99957ZM8.15705 18.9577L6.86155 20.984L8.54659 22.0614L9.84209 20.0351L8.15705 18.9577Z" fill="white" mask="url(#path-2-inside-1_234_241)"/>
</svg>
