<svg width="23" height="23" viewBox="0 0 23 23" fill="none" xmlns="http://www.w3.org/2000/svg">
<path d="M11.5 20.5C13.887 20.5 16.1762 19.5518 17.864 17.864C19.5518 16.1761 20.5 13.8869 20.5 11.5C20.5 9.11304 19.5518 6.82385 17.864 5.13602C16.1762 3.44819 13.887 2.49998 11.5 2.49998C9.11306 2.49998 6.82387 3.44819 5.13604 5.13602C3.44822 6.82385 2.5 9.11304 2.5 11.5C2.5 13.8869 3.44822 16.1761 5.13604 17.864C6.82387 19.5518 9.11306 20.5 11.5 20.5ZM11.5 0.249977C12.9774 0.249977 14.4403 0.540967 15.8052 1.10633C17.1701 1.6717 18.4103 2.50037 19.455 3.54503C20.4996 4.58969 21.3283 5.82988 21.8937 7.1948C22.459 8.55971 22.75 10.0226 22.75 11.5C22.75 14.4837 21.5648 17.3452 19.455 19.455C17.3452 21.5647 14.4837 22.75 11.5 22.75C5.27876 22.75 0.25 17.6875 0.25 11.5C0.25 8.5163 1.43527 5.65482 3.54505 3.54503C5.65484 1.43524 8.51632 0.249977 11.5 0.249977ZM12.0625 5.87498V11.7812L17.125 14.785L16.2813 16.1687L10.375 12.625V5.87498H12.0625Z" fill="#3D3D3D"/>
</svg>
