<svg width="20" height="20" viewBox="0 0 20 20" fill="none" xmlns="http://www.w3.org/2000/svg">
<path d="M4 10.6L8.4 15L15 4" stroke="white" stroke-width="2" stroke-linecap="round" stroke-linejoin="round"/>
<mask id="path-2-inside-1_234_241" fill="white">
<path fill-rule="evenodd" clip-rule="evenodd" d="M18.43 6.05798C19.5666 4.16366 18.9523 1.70662 17.058 0.570028C16.435 0.196217 15.7511 0.0117905 15.0733 0H18C19.103 0 20 0.897 20 2V7V12C20 13.103 19.103 14 18 14H14V18C14 19.103 13.103 20 12 20H7H2C0.897 20 0 19.103 0 18L-8.9407e-08 10.6C-8.9407e-08 11.6237 0.390524 12.6474 1.17157 13.4284L2 14.2569V18H5.75423C6.60914 18.7541 7.74944 19.1103 8.88873 18.97C9.69847 18.8703 10.4479 18.5272 11.0458 18H12.002L12.0018 16.7717L14.8648 12H18V6.7746L18.43 6.05798ZM11.5352 2H8V6H9.13524L7.93524 8H7.05685L6.82843 7.77157C5.26633 6.20948 2.73367 6.20948 1.17157 7.77157C0.390524 8.55262 -8.9407e-08 9.57631 -8.9407e-08 10.6L0 8C0 6.897 0.897 6 2 6H6V2C6 0.897 6.897 0 8 0H14.9343C13.5999 0.0232006 12.3072 0.713359 11.57 1.94202L11.5352 2Z"/>
</mask>
<path fill-rule="evenodd" clip-rule="evenodd" d="M18.43 6.05798C19.5666 4.16366 18.9523 1.70662 17.058 0.570028C16.435 0.196217 15.7511 0.0117905 15.0733 0H18C19.103 0 20 0.897 20 2V7V12C20 13.103 19.103 14 18 14H14V18C14 19.103 13.103 20 12 20H7H2C0.897 20 0 19.103 0 18L-8.9407e-08 10.6C-8.9407e-08 11.6237 0.390524 12.6474 1.17157 13.4284L2 14.2569V18H5.75423C6.60914 18.7541 7.74944 19.1103 8.88873 18.97C9.69847 18.8703 10.4479 18.5272 11.0458 18H12.002L12.0018 16.7717L14.8648 12H18V6.7746L18.43 6.05798ZM11.5352 2H8V6H9.13524L7.93524 8H7.05685L6.82843 7.77157C5.26633 6.20948 2.73367 6.20948 1.17157 7.77157C0.390524 8.55262 -8.9407e-08 9.57631 -8.9407e-08 10.6L0 8C0 6.897 0.897 6 2 6H6V2C6 0.897 6.897 0 8 0H14.9343C13.5999 0.0232006 12.3072 0.713359 11.57 1.94202L11.5352 2Z" fill="white"/>
<path d="M17.058 0.570028L16.5435 1.42752L16.5435 1.42752L17.058 0.570028ZM18.43 6.05798L17.5725 5.54349L17.5725 5.54349L18.43 6.05798ZM15.0733 0V-1L15.0559 0.999849L15.0733 0ZM14 14V13H13V14H14ZM0 18L1 18L0 18ZM-8.9407e-08 10.6L-1 10.6L-8.9407e-08 10.6ZM1.17157 13.4284L0.464466 14.1355L0.464466 14.1355L1.17157 13.4284ZM2 14.2569H3V13.8426L2.70711 13.5497L2 14.2569ZM2 18H1V19H2V18ZM5.75423 18L6.41573 17.2501L6.13224 17H5.75423V18ZM8.88873 18.97L8.76655 17.9775L8.76655 17.9775L8.88873 18.97ZM11.0458 18V17H10.6679L10.3844 17.25L11.0458 18ZM12.002 18V19H13.0022L13.002 17.9998L12.002 18ZM12.0018 16.7717L11.1443 16.2572L11.0017 16.4948L11.0018 16.7719L12.0018 16.7717ZM14.8648 12V11H14.2986L14.0073 11.4855L14.8648 12ZM18 12V13H19V12H18ZM18 6.7746L17.1425 6.26011L17 6.49762V6.7746H18ZM8 2V1H7V2H8ZM11.5352 2V3H12.1014L12.3927 2.5145L11.5352 2ZM8 6H7V7H8V6ZM9.13524 6L9.99273 6.5145L10.9014 5H9.13524V6ZM7.93524 8V9H8.50143L8.79273 8.5145L7.93524 8ZM7.05685 8L6.34975 8.70711L6.64264 9H7.05685V8ZM6.82843 7.77157L7.53553 7.06447L7.53553 7.06447L6.82843 7.77157ZM1.17157 7.77157L0.464466 7.06447L0.464466 7.06447L1.17157 7.77157ZM0 8L1 8V8H0ZM6 6V7H7V6H6ZM14.9343 0L14.9516 0.999849L14.9343 -1V0ZM11.57 1.94202L12.4275 2.45652L12.4275 2.45651L11.57 1.94202ZM16.5435 1.42752C17.9642 2.27997 18.4249 4.12275 17.5725 5.54349L19.2875 6.57248C20.7082 4.20458 19.9404 1.13328 17.5725 -0.287465L16.5435 1.42752ZM15.0559 0.999849C15.5631 1.00867 16.0748 1.14631 16.5435 1.42752L17.5725 -0.287465C16.7951 -0.753872 15.9391 -0.98509 15.0907 -0.999849L15.0559 0.999849ZM18 -1H15.0733V1H18V-1ZM21 2C21 0.344715 19.6553 -1 18 -1V1C18.5507 1 19 1.44928 19 2H21ZM21 7V2H19V7H21ZM21 12V7H19V12H21ZM18 15C19.6553 15 21 13.6553 21 12H19C19 12.5507 18.5507 13 18 13V15ZM14 15H18V13H14V15ZM15 18V14H13V18H15ZM12 21C13.6553 21 15 19.6553 15 18H13C13 18.5507 12.5507 19 12 19V21ZM7 21H12V19H7V21ZM2 21H7V19H2V21ZM-1 18C-1 19.6553 0.344715 21 2 21V19C1.44928 19 1 18.5507 1 18H-1ZM-1 10.6L-1 18L1 18L1 10.6L-1 10.6ZM1.87868 12.7213C1.2927 12.1353 1 11.3693 1 10.6H-1C-1 11.8781 -0.511649 13.1594 0.464466 14.1355L1.87868 12.7213ZM2.70711 13.5497L1.87868 12.7213L0.464466 14.1355L1.29289 14.964L2.70711 13.5497ZM3 18V14.2569H1V18H3ZM5.75423 17H2V19H5.75423V17ZM8.76655 17.9775C7.91211 18.0827 7.05685 17.8156 6.41573 17.2501L5.09273 18.7499C6.16142 19.6926 7.58676 20.1379 9.01092 19.9625L8.76655 17.9775ZM10.3844 17.25C9.93583 17.6455 9.37379 17.9028 8.76655 17.9775L9.01092 19.9625C10.0232 19.8379 10.9599 19.409 11.7072 18.75L10.3844 17.25ZM12.002 17H11.0458V19H12.002V17ZM11.0018 16.7719L11.002 18.0002L13.002 17.9998L13.0018 16.7715L11.0018 16.7719ZM14.0073 11.4855L11.1443 16.2572L12.8592 17.2862L15.7223 12.5145L14.0073 11.4855ZM18 11H14.8648V13H18V11ZM17 6.7746V12H19V6.7746H17ZM17.5725 5.54349L17.1425 6.26011L18.8575 7.2891L19.2875 6.57248L17.5725 5.54349ZM8 3H11.5352V1H8V3ZM9 6V2H7V6H9ZM9.13524 5H8V7H9.13524V5ZM8.79273 8.5145L9.99273 6.5145L8.27775 5.4855L7.07775 7.4855L8.79273 8.5145ZM7.05685 9H7.93524V7H7.05685V9ZM6.12132 8.47868L6.34975 8.70711L7.76396 7.29289L7.53553 7.06447L6.12132 8.47868ZM1.87868 8.47868C3.05025 7.30711 4.94975 7.30711 6.12132 8.47868L7.53553 7.06447C5.58291 5.11185 2.41709 5.11184 0.464466 7.06447L1.87868 8.47868ZM1 10.6C1 9.83069 1.2927 9.06466 1.87868 8.47868L0.464466 7.06447C-0.511649 8.04058 -1 9.32194 -1 10.6H1ZM-1 8L-1 10.6L1 10.6L1 8L-1 8ZM2 5C0.344715 5 -1 6.34472 -1 8H1C1 7.44928 1.44928 7 2 7V5ZM6 5H2V7H6V5ZM5 2V6H7V2H5ZM8 -1C6.34472 -1 5 0.344715 5 2H7C7 1.44928 7.44928 1 8 1V-1ZM14.9343 -1H8V1H14.9343V-1ZM12.4275 2.45651C12.9798 1.53597 13.9478 1.0173 14.9516 0.999849L14.9169 -0.999849C13.252 -0.970901 11.6346 -0.109256 10.7125 1.42752L12.4275 2.45651ZM12.3927 2.5145L12.4275 2.45652L10.7125 1.42752L10.6777 1.4855L12.3927 2.5145Z" fill="white" mask="url(#path-2-inside-1_234_241)"/>
</svg>
