<svg width="13" height="20" viewBox="0 0 13 20" fill="none" xmlns="http://www.w3.org/2000/svg">
<path fill-rule="evenodd" clip-rule="evenodd" d="M10 7.25V8.75H3V7.25H10ZM10 11.25V12.75H3V11.25H10ZM10 15.25V16.75H3V15.25H10ZM6.5 4.75H3V3.25H6.5H10V4.75H6.5ZM9.75 1.5H3.25C2.2751 1.5 1.5 2.28327 1.5 3.23077V16.7692C1.5 17.7167 2.2751 18.5 3.25 18.5H9.75C10.7249 18.5 11.5 17.7167 11.5 16.7692V3.23077C11.5 2.28327 10.7249 1.5 9.75 1.5ZM3.25 0C1.45507 0 0 1.44646 0 3.23077V16.7692C0 18.5535 1.45507 20 3.25 20H9.75C11.5449 20 13 18.5535 13 16.7692V3.23077C13 1.44646 11.5449 0 9.75 0H3.25Z" fill="white"/>
</svg>
