<svg width="25" height="20" viewBox="0 0 25 20" fill="none" xmlns="http://www.w3.org/2000/svg">
<path fill-rule="evenodd" clip-rule="evenodd" d="M3 4.75H10V3.25H3V4.75ZM3 8.75H10V7.25H3V8.75ZM3 12.75H10V11.25H3V12.75ZM3 16.75H10V15.25H3V16.75ZM3.25 1.5H9.75C10.7249 1.5 11.5 2.28327 11.5 3.23077V16.7692C11.5 17.7167 10.7249 18.5 9.75 18.5H3.25C2.2751 18.5 1.5 17.7167 1.5 16.7692V3.23077C1.5 2.28327 2.2751 1.5 3.25 1.5ZM0 3.23077C0 1.44646 1.45507 0 3.25 0H9.75C10.9079 0 11.9243 0.601929 12.5 1.50818C13.0757 0.601929 14.0921 0 15.25 0H21.75C23.5449 0 25 1.44646 25 3.23077V16.7692C25 18.5535 23.5449 20 21.75 20H15.25C14.0921 20 13.0757 19.3981 12.5 18.4918C11.9243 19.3981 10.9079 20 9.75 20H3.25C1.45507 20 0 18.5535 0 16.7692V3.23077ZM15 4.75H22V3.25H15V4.75ZM15 8.75H22V7.25H15V8.75ZM15 12.75H22V11.25H15V12.75ZM15 16.75H22V15.25H15V16.75ZM15.25 1.5H21.75C22.7249 1.5 23.5 2.28327 23.5 3.23077V16.7692C23.5 17.7167 22.7249 18.5 21.75 18.5H15.25C14.2751 18.5 13.5 17.7167 13.5 16.7692V3.23077C13.5 2.28327 14.2751 1.5 15.25 1.5Z" fill="#ffffff"/>
</svg>
