<svg width="91" height="65" viewBox="0 0 91 65" fill="none" xmlns="http://www.w3.org/2000/svg">
<rect y="25" width="37" height="15" rx="3" fill="#FFC9C2"/>
<rect x="67" y="25" width="24" height="15" rx="3" fill="#FFC9C2"/>
<path d="M5.75 37.1193C5.10795 37.1193 4.56108 36.9446 4.10938 36.5952C3.65767 36.2429 3.3125 35.733 3.07386 35.0653C2.83523 34.3949 2.71591 33.5852 2.71591 32.6364C2.71591 31.6932 2.83523 30.8878 3.07386 30.2202C3.31534 29.5497 3.66193 29.0384 4.11364 28.6861C4.56818 28.331 5.11364 28.1534 5.75 28.1534C6.38636 28.1534 6.9304 28.331 7.3821 28.6861C7.83665 29.0384 8.18324 29.5497 8.42188 30.2202C8.66335 30.8878 8.78409 31.6932 8.78409 32.6364C8.78409 33.5852 8.66477 34.3949 8.42614 35.0653C8.1875 35.733 7.84233 36.2429 7.39062 36.5952C6.93892 36.9446 6.39205 37.1193 5.75 37.1193ZM5.75 36.1818C6.38636 36.1818 6.88068 35.875 7.23295 35.2614C7.58523 34.6477 7.76136 33.7727 7.76136 32.6364C7.76136 31.8807 7.6804 31.2372 7.51847 30.706C7.35938 30.1747 7.12926 29.7699 6.82812 29.4915C6.52983 29.2131 6.17045 29.0739 5.75 29.0739C5.11932 29.0739 4.62642 29.3849 4.27131 30.0071C3.91619 30.6264 3.73864 31.5028 3.73864 32.6364C3.73864 33.392 3.81818 34.0341 3.97727 34.5625C4.13636 35.0909 4.36506 35.4929 4.66335 35.7685C4.96449 36.044 5.3267 36.1818 5.75 36.1818ZM13.3523 37.1193C12.7898 37.1193 12.2884 37.0227 11.848 36.8295C11.4105 36.6364 11.0625 36.3679 10.804 36.0241C10.5483 35.6776 10.4091 35.2756 10.3864 34.8182H11.4602C11.483 35.0994 11.5795 35.3423 11.75 35.5469C11.9205 35.7486 12.1435 35.9048 12.419 36.0156C12.6946 36.1264 13 36.1818 13.3352 36.1818C13.7102 36.1818 14.0426 36.1165 14.3324 35.9858C14.6222 35.8551 14.8494 35.6733 15.0142 35.4403C15.179 35.2074 15.2614 34.9375 15.2614 34.6307C15.2614 34.3097 15.1818 34.027 15.0227 33.7827C14.8636 33.5355 14.6307 33.3423 14.3239 33.2031C14.017 33.0639 13.642 32.9943 13.1989 32.9943H12.5V32.0568H13.1989C13.5455 32.0568 13.8494 31.9943 14.1108 31.8693C14.375 31.7443 14.581 31.5682 14.7287 31.3409C14.8793 31.1136 14.9545 30.8466 14.9545 30.5398C14.9545 30.2443 14.8892 29.9872 14.7585 29.7685C14.6278 29.5497 14.4432 29.3793 14.2045 29.2571C13.9688 29.1349 13.6903 29.0739 13.3693 29.0739C13.0682 29.0739 12.7841 29.1293 12.517 29.2401C12.2528 29.348 12.0369 29.5057 11.8693 29.7131C11.7017 29.9176 11.6108 30.1648 11.5966 30.4545H10.5739C10.5909 29.9972 10.7287 29.5966 10.9872 29.2528C11.2457 28.9062 11.5838 28.6364 12.0014 28.4432C12.4219 28.25 12.8835 28.1534 13.3864 28.1534C13.9261 28.1534 14.3892 28.2628 14.7756 28.4815C15.1619 28.6974 15.4588 28.983 15.6662 29.3381C15.8736 29.6932 15.9773 30.0767 15.9773 30.4886C15.9773 30.9801 15.848 31.3991 15.5895 31.7457C15.3338 32.0923 14.9858 32.3324 14.5455 32.4659V32.5341C15.0966 32.625 15.527 32.8594 15.8366 33.2372C16.1463 33.6122 16.3011 34.0767 16.3011 34.6307C16.3011 35.1051 16.1719 35.5312 15.9134 35.9091C15.6577 36.2841 15.3082 36.5795 14.8651 36.7955C14.4219 37.0114 13.9176 37.1193 13.3523 37.1193ZM18.5245 37.0682C18.3143 37.0682 18.1339 36.9929 17.9833 36.8423C17.8327 36.6918 17.7575 36.5114 17.7575 36.3011C17.7575 36.0909 17.8327 35.9105 17.9833 35.7599C18.1339 35.6094 18.3143 35.5341 18.5245 35.5341C18.7347 35.5341 18.9151 35.6094 19.0657 35.7599C19.2163 35.9105 19.2915 36.0909 19.2915 36.3011C19.2915 36.4403 19.256 36.5682 19.185 36.6847C19.1168 36.8011 19.0245 36.8949 18.908 36.9659C18.7944 37.0341 18.6665 37.0682 18.5245 37.0682ZM21.0792 37V36.233L23.9599 33.0795C24.2979 32.7102 24.5763 32.3892 24.7951 32.1165C25.0138 31.8409 25.1758 31.5824 25.2809 31.3409C25.3888 31.0966 25.4428 30.8409 25.4428 30.5739C25.4428 30.267 25.369 30.0014 25.2212 29.777C25.0763 29.5526 24.8775 29.3793 24.6246 29.2571C24.3718 29.1349 24.0877 29.0739 23.7724 29.0739C23.4371 29.0739 23.1445 29.1435 22.8945 29.2827C22.6474 29.419 22.4556 29.6108 22.3192 29.858C22.1857 30.1051 22.119 30.3949 22.119 30.7273H21.1133C21.1133 30.2159 21.2312 29.767 21.467 29.3807C21.7028 28.9943 22.0238 28.6932 22.43 28.4773C22.8391 28.2614 23.2979 28.1534 23.8065 28.1534C24.3178 28.1534 24.771 28.2614 25.1658 28.4773C25.5607 28.6932 25.8704 28.9844 26.0948 29.3509C26.3192 29.7173 26.4315 30.125 26.4315 30.5739C26.4315 30.8949 26.3732 31.2088 26.2567 31.5156C26.1431 31.8196 25.9442 32.1591 25.6602 32.5341C25.3789 32.9062 24.9883 33.3608 24.4883 33.8977L22.5281 35.9943V36.0625H26.5849V37H21.0792ZM27.9528 35.2102V34.3409L31.788 28.2727H32.4187V29.6193H31.9925L29.0948 34.2045V34.2727H34.2596V35.2102H27.9528ZM32.0607 37V34.946V34.5412V28.2727H33.0664V37H32.0607ZM42.0781 37H39.3849V28.2727H42.1974C43.044 28.2727 43.7685 28.4474 44.3707 28.7969C44.973 29.1435 45.4347 29.642 45.7557 30.2926C46.0767 30.9403 46.2372 31.7159 46.2372 32.6193C46.2372 33.5284 46.0753 34.3111 45.7514 34.9673C45.4276 35.6207 44.956 36.1236 44.3366 36.4759C43.7173 36.8253 42.9645 37 42.0781 37ZM40.4418 36.0625H42.0099C42.7315 36.0625 43.3295 35.9233 43.804 35.6449C44.2784 35.3665 44.6321 34.9702 44.8651 34.456C45.098 33.9418 45.2145 33.3295 45.2145 32.6193C45.2145 31.9148 45.0994 31.3082 44.8693 30.7997C44.6392 30.2884 44.2955 29.8963 43.8381 29.6236C43.3807 29.348 42.8111 29.2102 42.1293 29.2102H40.4418V36.0625ZM49.5952 37L47.2088 28.2727H48.2827L50.1065 35.3807H50.1918L52.0497 28.2727H53.2429L55.1009 35.3807H55.1861L57.0099 28.2727H58.0838L55.6974 37H54.6065L52.6804 30.0455H52.6122L50.6861 37H49.5952ZM59.4006 37V28.2727H62.3494C63.0313 28.2727 63.5909 28.3892 64.0284 28.6222C64.4659 28.8523 64.7898 29.169 65 29.5724C65.2102 29.9759 65.3153 30.4347 65.3153 30.9489C65.3153 31.4631 65.2102 31.919 65 32.3168C64.7898 32.7145 64.4673 33.027 64.0327 33.2543C63.598 33.4787 63.0426 33.5909 62.3665 33.5909H59.9801V32.6364H62.3324C62.7983 32.6364 63.1733 32.5682 63.4574 32.4318C63.7443 32.2955 63.9517 32.1023 64.0795 31.8523C64.2102 31.5994 64.2756 31.2983 64.2756 30.9489C64.2756 30.5994 64.2102 30.294 64.0795 30.0327C63.9489 29.7713 63.7401 29.5696 63.4531 29.4276C63.1662 29.2827 62.7869 29.2102 62.3153 29.2102H60.4574V37H59.4006ZM63.5085 33.0795L65.6562 37H64.429L62.3153 33.0795H63.5085ZM73.3661 28.2727V37H72.3093V29.3807H72.2582L70.1275 30.7955V29.7216L72.3093 28.2727H73.3661ZM79.6431 32.1676V33.1051H75.8249V32.1676H79.6431ZM84.2038 37.1193C83.6413 37.1193 83.1399 37.0227 82.6996 36.8295C82.2621 36.6364 81.9141 36.3679 81.6555 36.0241C81.3999 35.6776 81.2607 35.2756 81.2379 34.8182H82.3118C82.3345 35.0994 82.4311 35.3423 82.6016 35.5469C82.772 35.7486 82.995 35.9048 83.2706 36.0156C83.5462 36.1264 83.8516 36.1818 84.1868 36.1818C84.5618 36.1818 84.8942 36.1165 85.1839 35.9858C85.4737 35.8551 85.701 35.6733 85.8658 35.4403C86.0305 35.2074 86.1129 34.9375 86.1129 34.6307C86.1129 34.3097 86.0334 34.027 85.8743 33.7827C85.7152 33.5355 85.4822 33.3423 85.1754 33.2031C84.8686 33.0639 84.4936 32.9943 84.0504 32.9943H83.3516V32.0568H84.0504C84.397 32.0568 84.701 31.9943 84.9624 31.8693C85.2266 31.7443 85.4325 31.5682 85.5803 31.3409C85.7308 31.1136 85.8061 30.8466 85.8061 30.5398C85.8061 30.2443 85.7408 29.9872 85.6101 29.7685C85.4794 29.5497 85.2947 29.3793 85.0561 29.2571C84.8203 29.1349 84.5419 29.0739 84.2209 29.0739C83.9197 29.0739 83.6357 29.1293 83.3686 29.2401C83.1044 29.348 82.8885 29.5057 82.7209 29.7131C82.5533 29.9176 82.4624 30.1648 82.4482 30.4545H81.4254C81.4425 29.9972 81.5803 29.5966 81.8388 29.2528C82.0973 28.9062 82.4354 28.6364 82.853 28.4432C83.2734 28.25 83.7351 28.1534 84.2379 28.1534C84.7777 28.1534 85.2408 28.2628 85.6271 28.4815C86.0135 28.6974 86.3104 28.983 86.5178 29.3381C86.7251 29.6932 86.8288 30.0767 86.8288 30.4886C86.8288 30.9801 86.6996 31.3991 86.4411 31.7457C86.1854 32.0923 85.8374 32.3324 85.397 32.4659V32.5341C85.9482 32.625 86.3786 32.8594 86.6882 33.2372C86.9979 33.6122 87.1527 34.0767 87.1527 34.6307C87.1527 35.1051 87.0234 35.5312 86.7649 35.9091C86.5092 36.2841 86.1598 36.5795 85.7166 36.7955C85.2734 37.0114 84.7692 37.1193 84.2038 37.1193Z" fill="black"/>
<path d="M22.907 11.208L24.851 11.148C25.251 11.148 25.451 11.3 25.451 11.604C25.451 11.908 25.251 12.06 24.851 12.06L22.907 12C22.907 12 22.207 12.02 20.807 12.06C20.447 12.06 20.267 11.908 20.267 11.604C20.267 11.324 20.275 10.852 20.291 10.188C20.315 9.524 20.327 8.676 20.327 7.644C20.255 7.652 20.175 7.656 20.087 7.656C19.703 7.656 19.511 7.508 19.511 7.212C19.511 7.076 19.563 6.964 19.667 6.876C19.771 6.788 19.887 6.744 20.015 6.744C20.151 6.744 20.255 6.748 20.327 6.756C20.311 5.148 20.283 4.176 20.243 3.84C20.147 3.704 20.099 3.556 20.099 3.396C20.099 3.092 20.311 2.94 20.735 2.94L23.051 3L24.851 2.94C25.251 2.94 25.451 3.092 25.451 3.396C25.451 3.7 25.251 3.852 24.851 3.852L23.051 3.792C22.139 3.792 21.539 3.808 21.251 3.84C21.211 4.888 21.191 5.868 21.191 6.78C21.543 6.796 21.823 6.804 22.031 6.804L24.191 6.744C24.375 6.744 24.519 6.788 24.623 6.876C24.735 6.956 24.791 7.068 24.791 7.212C24.791 7.508 24.591 7.656 24.191 7.656L22.031 7.596C21.807 7.596 21.527 7.604 21.191 7.62V8.808C21.191 10 21.211 10.784 21.251 11.16C21.811 11.192 22.363 11.208 22.907 11.208ZM31.8954 8.22L31.8354 10.104C31.8354 10.328 31.8354 10.5 31.8354 10.62C31.8434 10.732 31.8674 10.852 31.9074 10.98C31.9554 11.1 32.0114 11.176 32.0754 11.208C32.1394 11.232 32.2034 11.248 32.2674 11.256C32.3394 11.264 32.3874 11.276 32.4114 11.292C32.4434 11.308 32.4594 11.34 32.4594 11.388C32.4594 11.596 32.3914 11.772 32.2554 11.916C32.1274 12.052 31.9754 12.12 31.7994 12.12C31.4954 12.12 31.2834 12 31.1634 11.76C31.0514 11.52 30.9954 11.168 30.9954 10.704L31.0434 8.496C31.0434 7.952 30.9274 7.512 30.6954 7.176C30.4634 6.84 30.1394 6.672 29.7234 6.672C29.3154 6.672 28.9194 6.9 28.5354 7.356C28.1514 7.812 27.8834 8.328 27.7314 8.904L27.7674 11.508C27.7674 11.916 27.6154 12.12 27.3114 12.12C26.9434 12.12 26.7594 11.84 26.7594 11.28C26.7594 10.712 26.8394 9.92 26.9994 8.904C26.9994 8.568 26.9634 8.104 26.8914 7.512C26.8274 6.92 26.7954 6.556 26.7954 6.42C26.7954 6.276 26.8354 6.152 26.9154 6.048C27.0034 5.936 27.1194 5.88 27.2634 5.88C27.4074 5.88 27.5194 5.936 27.5994 6.048C27.6874 6.152 27.7314 6.272 27.7314 6.408C27.7314 6.544 27.7274 6.712 27.7194 6.912C27.7194 7.104 27.7194 7.268 27.7194 7.404C28.3034 6.388 29.0234 5.88 29.8794 5.88C30.5194 5.88 31.0154 6.108 31.3674 6.564C31.7194 7.02 31.8954 7.572 31.8954 8.22ZM34.9831 6.732L34.9591 9.576C34.9591 10.304 34.9871 10.78 35.0431 11.004C35.1071 11.228 35.2671 11.34 35.5231 11.34C35.6431 11.34 35.7871 11.3 35.9551 11.22C36.1311 11.132 36.2471 11.088 36.3031 11.088C36.4711 11.088 36.5551 11.172 36.5551 11.34C36.5551 11.5 36.4071 11.672 36.1111 11.856C35.8151 12.032 35.5231 12.12 35.2351 12.12C34.5391 12.12 34.1911 11.608 34.1911 10.584L34.1791 6.732C33.9151 6.756 33.7311 6.768 33.6271 6.768C33.2271 6.768 33.0271 6.636 33.0271 6.372C33.0271 6.108 33.2271 5.976 33.6271 5.976C33.6591 5.976 33.8351 5.984 34.1551 6L34.1311 4.656C34.1311 4.256 34.2831 4.056 34.5871 4.056C34.8911 4.056 35.0431 4.256 35.0431 4.656L35.0071 6.012L35.9791 5.964C36.3791 5.964 36.5791 6.1 36.5791 6.372C36.5791 6.628 36.3791 6.756 35.9791 6.756C35.9071 6.756 35.5751 6.748 34.9831 6.732ZM39.9412 8.772C40.4852 8.772 40.9172 8.68 41.2372 8.496C41.5652 8.312 41.7292 8.064 41.7292 7.752C41.7292 7.44 41.6212 7.172 41.4052 6.948C41.1972 6.716 40.8972 6.6 40.5052 6.6C39.9772 6.6 39.5332 6.8 39.1732 7.2C38.8132 7.592 38.5812 8.052 38.4772 8.58C38.9172 8.708 39.4052 8.772 39.9412 8.772ZM40.3972 5.82C41.0452 5.82 41.5692 6 41.9692 6.36C42.3772 6.72 42.5812 7.188 42.5812 7.764C42.5812 8.34 42.3292 8.78 41.8252 9.084C41.3292 9.38 40.7172 9.528 39.9892 9.528C39.5732 9.528 39.0652 9.468 38.4652 9.348C38.5132 9.908 38.7212 10.392 39.0892 10.8C39.4652 11.2 39.8812 11.4 40.3372 11.4C40.6092 11.4 40.8612 11.364 41.0932 11.292C41.3252 11.212 41.5012 11.128 41.6212 11.04C41.9412 10.792 42.1492 10.668 42.2452 10.668C42.3492 10.668 42.4292 10.7 42.4852 10.764C42.5492 10.82 42.5812 10.892 42.5812 10.98C42.5812 11.204 42.3492 11.46 41.8852 11.748C41.4292 12.036 40.9332 12.18 40.3972 12.18C39.5652 12.18 38.9052 11.888 38.4172 11.304C37.9292 10.72 37.6652 10.016 37.6252 9.192C37.2012 9.064 36.9892 8.856 36.9892 8.568C36.9892 8.448 37.0212 8.356 37.0852 8.292C37.1572 8.22 37.2412 8.184 37.3372 8.184C37.4332 8.184 37.5532 8.22 37.6972 8.292C37.8732 7.572 38.2052 6.98 38.6932 6.516C39.1892 6.052 39.7572 5.82 40.3972 5.82ZM44.9579 9.252L44.9939 11.508C44.9939 11.916 44.8419 12.12 44.5379 12.12C44.1699 12.12 43.9859 11.84 43.9859 11.28C43.9859 10.712 44.0659 9.92 44.2259 8.904C44.2259 8.568 44.1899 8.108 44.1179 7.524C44.0539 6.94 44.0219 6.576 44.0219 6.432C44.0219 6.288 44.0619 6.16 44.1419 6.048C44.2299 5.936 44.3459 5.88 44.4899 5.88C44.6339 5.88 44.7459 5.936 44.8259 6.048C44.9139 6.16 44.9579 6.284 44.9579 6.42C44.9579 6.548 44.9539 6.716 44.9459 6.924C44.9459 7.124 44.9459 7.292 44.9459 7.428C45.1059 7.02 45.3539 6.66 45.6899 6.348C46.0339 6.036 46.3859 5.88 46.7459 5.88C47.1059 5.88 47.3819 5.956 47.5739 6.108C47.7739 6.252 47.8739 6.408 47.8739 6.576C47.8739 6.744 47.8299 6.876 47.7419 6.972C47.6539 7.068 47.5379 7.116 47.3939 7.116C47.2579 7.116 47.1059 7.044 46.9379 6.9C46.7779 6.748 46.6499 6.672 46.5539 6.672C46.2899 6.672 45.9819 6.956 45.6299 7.524C45.2779 8.092 45.0539 8.668 44.9579 9.252ZM53.1237 6.732L53.0997 9.576C53.0997 10.304 53.1277 10.78 53.1837 11.004C53.2477 11.228 53.4077 11.34 53.6637 11.34C53.7837 11.34 53.9277 11.3 54.0957 11.22C54.2717 11.132 54.3877 11.088 54.4437 11.088C54.6117 11.088 54.6957 11.172 54.6957 11.34C54.6957 11.5 54.5477 11.672 54.2517 11.856C53.9557 12.032 53.6637 12.12 53.3757 12.12C52.6797 12.12 52.3317 11.608 52.3317 10.584L52.3197 6.732C52.0557 6.756 51.8717 6.768 51.7677 6.768C51.3677 6.768 51.1677 6.636 51.1677 6.372C51.1677 6.108 51.3677 5.976 51.7677 5.976C51.7997 5.976 51.9757 5.984 52.2957 6L52.2717 4.656C52.2717 4.256 52.4237 4.056 52.7277 4.056C53.0317 4.056 53.1837 4.256 53.1837 4.656L53.1477 6.012L54.1197 5.964C54.5197 5.964 54.7197 6.1 54.7197 6.372C54.7197 6.628 54.5197 6.756 54.1197 6.756C54.0477 6.756 53.7157 6.748 53.1237 6.732ZM60.8987 8.22L60.8387 10.104C60.8387 10.328 60.8387 10.5 60.8387 10.62C60.8467 10.732 60.8707 10.852 60.9107 10.98C60.9587 11.1 61.0147 11.176 61.0787 11.208C61.1427 11.232 61.2067 11.248 61.2707 11.256C61.3427 11.264 61.3907 11.276 61.4147 11.292C61.4467 11.308 61.4627 11.34 61.4627 11.388C61.4627 11.596 61.3947 11.772 61.2587 11.916C61.1307 12.052 60.9787 12.12 60.8027 12.12C60.4987 12.12 60.2867 12 60.1667 11.76C60.0547 11.52 59.9987 11.168 59.9987 10.704L60.0467 8.496C60.0467 7.952 59.9307 7.512 59.6987 7.176C59.4667 6.84 59.1427 6.672 58.7267 6.672C58.3187 6.672 57.9227 6.9 57.5387 7.356C57.1547 7.812 56.8867 8.328 56.7347 8.904L56.7707 11.508C56.7707 11.916 56.6187 12.12 56.3147 12.12C55.9467 12.12 55.7627 11.84 55.7627 11.28C55.7627 10.712 55.8427 9.92 56.0027 8.904C56.0027 8.36 55.9667 7.336 55.8947 5.832C55.8227 4.32 55.7867 3.504 55.7867 3.384C55.7867 3.264 55.8267 3.152 55.9067 3.048C55.9947 2.936 56.1107 2.88 56.2547 2.88C56.3987 2.88 56.5107 2.936 56.5907 3.048C56.6787 3.152 56.7227 3.296 56.7227 3.48V7.404C57.3067 6.388 58.0267 5.88 58.8827 5.88C59.5227 5.88 60.0187 6.108 60.3707 6.564C60.7227 7.02 60.8987 7.572 60.8987 8.22ZM63.3005 3.3C63.4685 3.3 63.5925 3.356 63.6725 3.468C63.7525 3.572 63.7925 3.708 63.7925 3.876C63.7925 4.036 63.7365 4.2 63.6245 4.368C63.5125 4.528 63.3725 4.608 63.2045 4.608C63.0365 4.608 62.9085 4.552 62.8205 4.44C62.7405 4.328 62.7005 4.18 62.7005 3.996C62.7005 3.812 62.7565 3.652 62.8685 3.516C62.9885 3.372 63.1325 3.3 63.3005 3.3ZM63.6365 9L63.6965 11.52C63.6965 11.92 63.5445 12.12 63.2405 12.12C62.9365 12.12 62.7845 11.92 62.7845 11.52L62.8445 9L62.7845 6.48C62.7845 6.08 62.9365 5.88 63.2405 5.88C63.5445 5.88 63.6965 6.08 63.6965 6.48L63.6365 9ZM69.5721 10.272C69.5721 10.816 69.3481 11.26 68.9001 11.604C68.4601 11.948 67.9281 12.12 67.3041 12.12C66.6881 12.12 66.1521 11.98 65.6961 11.7C65.2401 11.412 65.0121 11.128 65.0121 10.848C65.0121 10.728 65.0481 10.632 65.1201 10.56C65.1921 10.48 65.2721 10.44 65.3601 10.44C65.4561 10.44 65.5321 10.46 65.5881 10.5C65.6441 10.532 65.7201 10.6 65.8161 10.704C65.9121 10.808 65.9961 10.896 66.0681 10.968C66.1481 11.04 66.3041 11.12 66.5361 11.208C66.7761 11.296 66.9961 11.34 67.1961 11.34C67.6361 11.34 67.9961 11.252 68.2761 11.076C68.5641 10.892 68.7081 10.628 68.7081 10.284C68.7081 9.868 68.3081 9.52 67.5081 9.24C67.1801 9.128 66.8481 9.008 66.5121 8.88C66.1841 8.744 65.9041 8.56 65.6721 8.328C65.4401 8.096 65.3241 7.82 65.3241 7.5C65.3241 7.068 65.5201 6.692 65.9121 6.372C66.3041 6.044 66.7841 5.88 67.3521 5.88C67.9201 5.88 68.3681 5.98 68.6961 6.18C69.0321 6.372 69.2001 6.576 69.2001 6.792C69.2001 7.056 69.0601 7.188 68.7801 7.188C68.6601 7.188 68.5401 7.144 68.4201 7.056C68.0441 6.792 67.6841 6.66 67.3401 6.66C66.9961 6.66 66.7161 6.74 66.5001 6.9C66.2841 7.052 66.1761 7.232 66.1761 7.44C66.1761 7.64 66.2921 7.812 66.5241 7.956C66.7561 8.1 67.0361 8.232 67.3641 8.352C67.7001 8.472 68.0361 8.608 68.3721 8.76C68.7081 8.904 68.9921 9.108 69.2241 9.372C69.4561 9.628 69.5721 9.928 69.5721 10.272Z" fill="#818181"/>
<path d="M33.5014 59.6C33.5014 60.328 33.2294 60.94 32.6854 61.436C32.1414 61.932 31.4414 62.18 30.5854 62.18C29.9214 62.18 29.3014 62.024 28.7254 61.712C28.1494 61.392 27.8614 61.076 27.8614 60.764C27.8614 60.644 27.8974 60.544 27.9694 60.464C28.0494 60.384 28.1494 60.344 28.2694 60.344C28.3894 60.344 28.5214 60.396 28.6654 60.5C28.8174 60.604 28.9574 60.72 29.0854 60.848C29.2214 60.968 29.4214 61.08 29.6854 61.184C29.9574 61.288 30.2574 61.34 30.5854 61.34C31.1454 61.34 31.6094 61.184 31.9774 60.872C32.3534 60.552 32.5414 60.128 32.5414 59.6C32.5414 59.248 32.3894 58.92 32.0854 58.616C31.7894 58.304 31.4254 58.028 30.9934 57.788C30.5694 57.54 30.1414 57.288 29.7094 57.032C29.2854 56.776 28.9214 56.468 28.6174 56.108C28.3214 55.748 28.1734 55.352 28.1734 54.92C28.1734 54.352 28.4174 53.86 28.9054 53.444C29.4014 53.028 29.9774 52.82 30.6334 52.82C31.2894 52.82 31.8494 52.932 32.3134 53.156C32.7774 53.38 33.0094 53.632 33.0094 53.912C33.0094 54.04 32.9694 54.14 32.8894 54.212C32.8174 54.284 32.7214 54.32 32.6014 54.32C32.4814 54.32 32.3614 54.288 32.2414 54.224C32.1214 54.152 32.0094 54.076 31.9054 53.996C31.8094 53.908 31.6574 53.832 31.4494 53.768C31.2414 53.696 30.9614 53.66 30.6094 53.66C30.2654 53.66 29.9334 53.78 29.6134 54.02C29.2934 54.252 29.1334 54.536 29.1334 54.872C29.1334 55.2 29.2814 55.504 29.5774 55.784C29.8814 56.056 30.2454 56.316 30.6694 56.564C31.1014 56.804 31.5294 57.06 31.9534 57.332C32.3854 57.596 32.7494 57.924 33.0454 58.316C33.3494 58.708 33.5014 59.136 33.5014 59.6ZM35.7894 58.904L35.8254 61.508C35.8254 61.916 35.6734 62.12 35.3694 62.12C35.0014 62.12 34.8174 61.84 34.8174 61.28C34.8174 60.712 34.8974 59.92 35.0574 58.904C35.0574 58.36 35.0214 57.336 34.9494 55.832C34.8774 54.32 34.8414 53.504 34.8414 53.384C34.8414 53.264 34.8814 53.152 34.9614 53.048C35.0494 52.936 35.1654 52.88 35.3094 52.88C35.4534 52.88 35.5654 52.936 35.6454 53.048C35.7334 53.152 35.7774 53.296 35.7774 53.48V57.404C36.3614 56.388 37.0814 55.88 37.9374 55.88C38.4014 55.88 38.7734 56.016 39.0534 56.288C39.3334 56.56 39.4734 56.892 39.4734 57.284C39.4734 57.94 39.1334 58.5 38.4534 58.964C38.3014 59.068 38.1054 59.196 37.8654 59.348L38.7534 60.716C38.9054 60.948 39.0654 61.1 39.2334 61.172C39.4014 61.244 39.5254 61.28 39.6054 61.28C39.6934 61.28 39.7374 61.316 39.7374 61.388C39.7374 61.58 39.6774 61.752 39.5574 61.904C39.4374 62.048 39.2934 62.12 39.1254 62.12C38.9574 62.12 38.8254 62.092 38.7294 62.036C38.6414 61.988 38.5414 61.892 38.4294 61.748C38.3254 61.596 38.2254 61.44 38.1294 61.28C37.6654 60.52 37.3094 59.964 37.0614 59.612C36.8534 59.612 36.6814 59.556 36.5454 59.444C36.4094 59.324 36.3414 59.184 36.3414 59.024C36.3414 58.864 36.3934 58.732 36.4974 58.628C36.6094 58.524 36.7534 58.472 36.9294 58.472C37.1054 58.472 37.2854 58.572 37.4694 58.772C37.7734 58.636 38.0414 58.428 38.2734 58.148C38.5134 57.868 38.6334 57.616 38.6334 57.392C38.6334 57.168 38.5694 56.992 38.4414 56.864C38.3214 56.736 38.1374 56.672 37.8894 56.672C37.4414 56.672 37.0174 56.9 36.6174 57.356C36.2174 57.804 35.9414 58.32 35.7894 58.904ZM41.5466 53.3C41.7146 53.3 41.8386 53.356 41.9186 53.468C41.9986 53.572 42.0386 53.708 42.0386 53.876C42.0386 54.036 41.9826 54.2 41.8706 54.368C41.7586 54.528 41.6186 54.608 41.4506 54.608C41.2826 54.608 41.1546 54.552 41.0666 54.44C40.9866 54.328 40.9466 54.18 40.9466 53.996C40.9466 53.812 41.0026 53.652 41.1146 53.516C41.2346 53.372 41.3786 53.3 41.5466 53.3ZM41.8826 59L41.9426 61.52C41.9426 61.92 41.7906 62.12 41.4866 62.12C41.1826 62.12 41.0306 61.92 41.0306 61.52L41.0906 59L41.0306 56.48C41.0306 56.08 41.1826 55.88 41.4866 55.88C41.7906 55.88 41.9426 56.08 41.9426 56.48L41.8826 59ZM46.2822 61.34C46.7942 61.34 47.2422 61.104 47.6262 60.632C48.0182 60.16 48.2142 59.608 48.2142 58.976C48.2142 58.336 48.0742 57.792 47.7942 57.344C47.5142 56.888 47.1342 56.66 46.6542 56.66C45.8142 56.66 45.1222 57.352 44.5782 58.736V60.644C45.0582 61.108 45.6262 61.34 46.2822 61.34ZM43.8342 59.72L43.8462 59.264V59.072C43.8462 58.736 43.8102 58.244 43.7382 57.596C43.6662 56.948 43.6302 56.556 43.6302 56.42C43.6302 56.276 43.6702 56.152 43.7502 56.048C43.8382 55.936 43.9542 55.88 44.0982 55.88C44.2422 55.88 44.3542 55.936 44.4342 56.048C44.5222 56.152 44.5662 56.272 44.5662 56.408C44.5662 56.544 44.5622 56.716 44.5542 56.924C44.5542 57.124 44.5542 57.292 44.5542 57.428C44.8182 56.94 45.1142 56.56 45.4422 56.288C45.7702 56.016 46.1942 55.88 46.7142 55.88C47.2342 55.88 47.6822 56.048 48.0582 56.384C48.4342 56.72 48.7022 57.108 48.8622 57.548C49.0222 57.988 49.1022 58.428 49.1022 58.868C49.1022 59.74 48.8382 60.5 48.3102 61.148C47.7822 61.796 47.1062 62.12 46.2822 62.12C45.6822 62.12 45.1142 61.924 44.5782 61.532C44.5622 62.5 44.5542 63.216 44.5542 63.68C44.5542 64.152 44.5142 64.448 44.4342 64.568C44.3542 64.696 44.2302 64.76 44.0622 64.76C43.8942 64.76 43.7542 64.688 43.6422 64.544C43.5382 64.408 43.4862 64.208 43.4862 63.944C43.4862 63.68 43.5022 63.364 43.5342 62.996C43.5662 62.636 43.6142 62.16 43.6782 61.568C43.7422 60.968 43.7942 60.428 43.8342 59.948V59.72ZM54.7253 56.732L54.7013 59.576C54.7013 60.304 54.7293 60.78 54.7853 61.004C54.8493 61.228 55.0093 61.34 55.2653 61.34C55.3853 61.34 55.5293 61.3 55.6973 61.22C55.8733 61.132 55.9893 61.088 56.0453 61.088C56.2133 61.088 56.2973 61.172 56.2973 61.34C56.2973 61.5 56.1493 61.672 55.8533 61.856C55.5573 62.032 55.2653 62.12 54.9773 62.12C54.2813 62.12 53.9333 61.608 53.9333 60.584L53.9213 56.732C53.6573 56.756 53.4733 56.768 53.3693 56.768C52.9693 56.768 52.7693 56.636 52.7693 56.372C52.7693 56.108 52.9693 55.976 53.3693 55.976C53.4013 55.976 53.5773 55.984 53.8973 56L53.8733 54.656C53.8733 54.256 54.0253 54.056 54.3293 54.056C54.6333 54.056 54.7853 54.256 54.7853 54.656L54.7493 56.012L55.7213 55.964C56.1213 55.964 56.3213 56.1 56.3213 56.372C56.3213 56.628 56.1213 56.756 55.7213 56.756C55.6493 56.756 55.3173 56.748 54.7253 56.732ZM62.5003 58.22L62.4403 60.104C62.4403 60.328 62.4403 60.5 62.4403 60.62C62.4483 60.732 62.4723 60.852 62.5123 60.98C62.5603 61.1 62.6163 61.176 62.6803 61.208C62.7443 61.232 62.8083 61.248 62.8723 61.256C62.9443 61.264 62.9923 61.276 63.0163 61.292C63.0483 61.308 63.0643 61.34 63.0643 61.388C63.0643 61.596 62.9963 61.772 62.8603 61.916C62.7323 62.052 62.5803 62.12 62.4043 62.12C62.1003 62.12 61.8883 62 61.7683 61.76C61.6563 61.52 61.6003 61.168 61.6003 60.704L61.6483 58.496C61.6483 57.952 61.5323 57.512 61.3003 57.176C61.0683 56.84 60.7443 56.672 60.3283 56.672C59.9203 56.672 59.5243 56.9 59.1403 57.356C58.7563 57.812 58.4883 58.328 58.3363 58.904L58.3723 61.508C58.3723 61.916 58.2203 62.12 57.9163 62.12C57.5483 62.12 57.3643 61.84 57.3643 61.28C57.3643 60.712 57.4443 59.92 57.6043 58.904C57.6043 58.36 57.5683 57.336 57.4963 55.832C57.4243 54.32 57.3883 53.504 57.3883 53.384C57.3883 53.264 57.4283 53.152 57.5083 53.048C57.5963 52.936 57.7123 52.88 57.8563 52.88C58.0003 52.88 58.1123 52.936 58.1923 53.048C58.2803 53.152 58.3243 53.296 58.3243 53.48V57.404C58.9083 56.388 59.6283 55.88 60.4843 55.88C61.1243 55.88 61.6203 56.108 61.9723 56.564C62.3243 57.02 62.5003 57.572 62.5003 58.22ZM64.902 53.3C65.07 53.3 65.194 53.356 65.274 53.468C65.354 53.572 65.394 53.708 65.394 53.876C65.394 54.036 65.338 54.2 65.226 54.368C65.114 54.528 64.974 54.608 64.806 54.608C64.638 54.608 64.51 54.552 64.422 54.44C64.342 54.328 64.302 54.18 64.302 53.996C64.302 53.812 64.358 53.652 64.47 53.516C64.59 53.372 64.734 53.3 64.902 53.3ZM65.238 59L65.298 61.52C65.298 61.92 65.146 62.12 64.842 62.12C64.538 62.12 64.386 61.92 64.386 61.52L64.446 59L64.386 56.48C64.386 56.08 64.538 55.88 64.842 55.88C65.146 55.88 65.298 56.08 65.298 56.48L65.238 59ZM71.1736 60.272C71.1736 60.816 70.9496 61.26 70.5016 61.604C70.0616 61.948 69.5296 62.12 68.9056 62.12C68.2896 62.12 67.7536 61.98 67.2976 61.7C66.8416 61.412 66.6136 61.128 66.6136 60.848C66.6136 60.728 66.6496 60.632 66.7216 60.56C66.7936 60.48 66.8736 60.44 66.9616 60.44C67.0576 60.44 67.1336 60.46 67.1896 60.5C67.2456 60.532 67.3216 60.6 67.4176 60.704C67.5136 60.808 67.5976 60.896 67.6696 60.968C67.7496 61.04 67.9056 61.12 68.1376 61.208C68.3776 61.296 68.5976 61.34 68.7976 61.34C69.2376 61.34 69.5976 61.252 69.8776 61.076C70.1656 60.892 70.3096 60.628 70.3096 60.284C70.3096 59.868 69.9096 59.52 69.1096 59.24C68.7816 59.128 68.4496 59.008 68.1136 58.88C67.7856 58.744 67.5056 58.56 67.2736 58.328C67.0416 58.096 66.9256 57.82 66.9256 57.5C66.9256 57.068 67.1216 56.692 67.5136 56.372C67.9056 56.044 68.3856 55.88 68.9536 55.88C69.5216 55.88 69.9696 55.98 70.2976 56.18C70.6336 56.372 70.8016 56.576 70.8016 56.792C70.8016 57.056 70.6616 57.188 70.3816 57.188C70.2616 57.188 70.1416 57.144 70.0216 57.056C69.6456 56.792 69.2856 56.66 68.9416 56.66C68.5976 56.66 68.3176 56.74 68.1016 56.9C67.8856 57.052 67.7776 57.232 67.7776 57.44C67.7776 57.64 67.8936 57.812 68.1256 57.956C68.3576 58.1 68.6376 58.232 68.9656 58.352C69.3016 58.472 69.6376 58.608 69.9736 58.76C70.3096 58.904 70.5936 59.108 70.8256 59.372C71.0576 59.628 71.1736 59.928 71.1736 60.272Z" fill="#818181"/>
<path d="M10.9622 23.6062C10.9858 23.6277 10.9198 23.3216 10.8718 23.1045C10.8528 23.1009 10.8346 23.0956 10.8172 23.0884C10.2071 22.8341 9.71308 22.0201 9.22223 21.597C8.87962 21.3016 7.72417 20.5922 8.06225 20.8927C9.02909 21.7521 9.99147 22.7237 10.9622 23.6062Z" fill="#818181"/>
<path d="M16.4099 6.57947C13.4068 8.09912 11.3177 10.0023 10.4443 13.3322C9.76783 15.9114 10.3948 18.9216 10.7758 21.4934C10.8446 21.9578 10.7444 22.4445 10.8275 22.9019C10.8401 22.9709 10.9967 23.6376 10.9622 23.6062C9.99147 22.7237 9.02909 21.7521 8.06225 20.8927C7.72417 20.5922 8.87962 21.3016 9.22223 21.597C9.71308 22.0201 10.2071 22.8341 10.8172 23.0884C11.4245 23.3414 13.076 21.2925 13.6136 20.9341" stroke="#818181" stroke-linecap="round"/>
<path d="M79.2378 20.9623C78.8019 20.7728 78.3449 20.5626 78.0743 20.292C77.6199 19.8376 78.3885 20.337 79.2378 20.9623Z" fill="#818181"/>
<path d="M71.7773 10.308C72.6317 10.6677 73.6127 10.7092 74.4701 11.064C75.7978 11.6134 76.8665 12.4308 77.8879 13.4358C79.7235 15.2418 80.3529 17.4608 80.3529 19.9917C80.3529 20.5454 80.497 20.994 80.6843 21.4934C80.7881 21.7703 79.9526 21.2883 79.9489 21.2863C79.4104 21.0012 78.5056 20.7233 78.0743 20.292C77.324 19.5417 79.9076 21.3918 80.6843 22.1148C81.2665 22.6569 82.6708 20.7836 82.9628 20.3749" stroke="#818181" stroke-linecap="round"/>
<path d="M49.4072 43.6779C49.4072 42.6562 50.4285 41.7248 50.8572 40.8401C51.5352 39.4408 51.6548 39.3685 52.7629 40.5087C53.9323 41.7121 54.8186 43.2195 55.7456 44.61" stroke="#818181" stroke-linecap="round"/>
<path d="M52 40C52.1712 42.0649 53.2283 44.0077 52.9552 46.099C52.7412 47.7372 52.2528 49.3565 52.2528 51" stroke="#818181" stroke-linecap="round"/>
</svg>
